<svg xmlns="http://www.w3.org/2000/svg" xml:space="preserve" viewBox="0 0 6021 1048">
  <path d="M0 589.737c0-265.443 209.1-458.266 494.577-458.266s494.576 192.823 494.576 458.266c0 265.444-209.1 458.266-494.576 458.266C209.1 1048.003 0 855.18 0 589.737Zm691.155 0c0-136.478-87.646-219.116-196.578-219.116s-196.579 82.638-196.579 219.116 87.647 219.116 196.579 219.116 196.578-82.638 196.578-219.116Zm1153.177 47.58v390.652H1561.36V686.15c0-85.143-32.554-117.698-83.89-117.698-57.596 0-106.428 36.311-106.428 137.73v321.788H1088.07V343.075h269.2v67.613c53.84-53.84 126.46-80.134 206.594-80.134 157.764 0 280.47 91.403 280.47 306.763Zm664.861 143.99 147.747 148.999c-67.613 72.621-164.024 110.184-299.25 110.184-251.67 0-414.443-151.503-414.443-355.594 0-207.847 167.78-354.342 393.157-354.342 199.083 0 371.872 122.705 371.872 350.586l-468.283 90.15c22.538 42.571 65.109 60.1 126.461 60.1 62.605 0 97.664-16.276 142.739-50.083Zm-287.981-143.99 219.116-42.572c-15.025-42.57-51.336-71.369-102.672-71.369-63.856 0-107.68 36.31-116.444 113.94Zm1980.81-485.812v507.097c0 250.418-160.268 389.4-430.72 389.4-115.193 0-205.343-30.05-271.704-82.637-65.11 52.587-156.512 82.638-271.704 82.638-269.2 0-429.468-138.983-429.468-389.4V151.504h295.494v498.332c0 105.176 40.067 159.016 128.965 159.016 90.151 0 128.966-53.84 128.966-159.016V151.505h295.494v498.332c0 105.176 40.067 159.016 130.217 159.016 88.899 0 128.966-53.84 128.966-159.016V151.505h295.493Zm97.663-7.513c0-81.386 66.36-143.99 170.284-143.99 103.924 0 170.285 57.596 170.285 138.982 0 86.394-66.361 148.999-170.285 148.999-103.924 0-170.284-62.605-170.284-143.99Zm28.798 199.083h282.972v684.894h-282.972V343.075Zm899.002-12.521v250.418c-25.042-3.756-42.571-5.008-62.605-5.008-85.142 0-145.243 38.815-145.243 147.747v304.258h-282.972V343.075h269.2v73.873c50.083-57.596 126.46-86.394 221.62-86.394Zm603.508 450.753 147.747 148.999c-67.613 72.621-164.024 110.184-299.25 110.184-251.67 0-414.443-151.503-414.443-355.594 0-207.847 167.78-354.342 393.157-354.342 199.083 0 371.872 122.705 371.872 350.586l-468.283 90.15c22.538 42.571 65.109 60.1 126.462 60.1 62.604 0 97.663-16.276 142.738-50.083Zm-287.981-143.99 219.116-42.572c-15.025-42.57-51.336-71.369-102.672-71.369-63.856 0-107.68 36.31-116.444 113.94Z"/>
</svg>
